<mxfile host="app.diagrams.net" modified="2020-04-02T08:14:08.929Z" agent="5.0 (Macintosh; Intel Mac OS X 10_14_6) AppleWebKit/537.36 (KHTML, like Gecko) Chrome/80.0.3987.149 Safari/537.36" etag="9MoFQ2sK4Z3rGPOkw92q" version="12.9.6" type="github" pages="3">
  <diagram id="osySlG6vOF2VXdflo7Ny" name="Page-1">
    <mxGraphModel dx="946" dy="579" grid="1" gridSize="10" guides="1" tooltips="1" connect="1" arrows="1" fold="1" page="1" pageScale="1" pageWidth="827" pageHeight="1169" math="0" shadow="0">
      <root>
        <mxCell id="0" />
        <mxCell id="1" parent="0" />
        <mxCell id="NDg6Oueld_C1ia3fCb1J-2" value="" style="rounded=0;whiteSpace=wrap;html=1;" parent="1" vertex="1">
          <mxGeometry x="350" y="360" width="120" height="60" as="geometry" />
        </mxCell>
        <mxCell id="NDg6Oueld_C1ia3fCb1J-3" value="" style="rounded=0;whiteSpace=wrap;html=1;fillColor=#d5e8d4;strokeColor=#82b366;" parent="1" vertex="1">
          <mxGeometry y="60" width="827" height="600" as="geometry" />
        </mxCell>
        <mxCell id="NDg6Oueld_C1ia3fCb1J-4" value="" style="rounded=0;whiteSpace=wrap;html=1;fillColor=#ffe6cc;strokeColor=#d79b00;" parent="1" vertex="1">
          <mxGeometry x="20" y="182.5" width="210" height="455" as="geometry" />
        </mxCell>
        <mxCell id="NDg6Oueld_C1ia3fCb1J-5" value="&lt;p&gt;The thread that sends the message&lt;/p&gt;" style="text;html=1;strokeColor=none;fillColor=none;align=center;verticalAlign=middle;whiteSpace=wrap;rounded=0;fontFamily=Comic Sans MS;" parent="1" vertex="1">
          <mxGeometry x="20" y="190" width="210" height="20" as="geometry" />
        </mxCell>
        <mxCell id="NDg6Oueld_C1ia3fCb1J-6" value="" style="rounded=0;whiteSpace=wrap;html=1;fillColor=#ffe6cc;strokeColor=#d79b00;" parent="1" vertex="1">
          <mxGeometry x="400" y="175" width="420" height="440" as="geometry" />
        </mxCell>
        <mxCell id="NDg6Oueld_C1ia3fCb1J-7" value="&lt;p&gt;The thread that receives the message&lt;/p&gt;" style="text;html=1;strokeColor=none;fillColor=none;align=center;verticalAlign=middle;whiteSpace=wrap;rounded=0;fontFamily=Comic Sans MS;" parent="1" vertex="1">
          <mxGeometry x="400" y="190" width="280" height="20" as="geometry" />
        </mxCell>
        <mxCell id="NDg6Oueld_C1ia3fCb1J-95" style="edgeStyle=orthogonalEdgeStyle;rounded=0;orthogonalLoop=1;jettySize=auto;html=1;exitX=0.5;exitY=1;exitDx=0;exitDy=0;entryX=0;entryY=0.5;entryDx=0;entryDy=0;fontFamily=Comic Sans MS;" parent="1" source="NDg6Oueld_C1ia3fCb1J-10" target="NDg6Oueld_C1ia3fCb1J-70" edge="1">
          <mxGeometry relative="1" as="geometry" />
        </mxCell>
        <mxCell id="NDg6Oueld_C1ia3fCb1J-101" style="edgeStyle=orthogonalEdgeStyle;rounded=0;orthogonalLoop=1;jettySize=auto;html=1;exitX=0;exitY=0.5;exitDx=0;exitDy=0;entryX=0.5;entryY=0;entryDx=0;entryDy=0;fontFamily=Comic Sans MS;" parent="1" source="NDg6Oueld_C1ia3fCb1J-10" target="NDg6Oueld_C1ia3fCb1J-21" edge="1">
          <mxGeometry relative="1" as="geometry" />
        </mxCell>
        <mxCell id="NDg6Oueld_C1ia3fCb1J-10" value="Handler" style="rounded=1;whiteSpace=wrap;html=1;fontFamily=Comic Sans MS;fillColor=#e1d5e7;strokeColor=#9673a6;" parent="1" vertex="1">
          <mxGeometry x="240" y="250" width="140" height="120" as="geometry" />
        </mxCell>
        <mxCell id="NDg6Oueld_C1ia3fCb1J-34" style="edgeStyle=orthogonalEdgeStyle;rounded=0;orthogonalLoop=1;jettySize=auto;html=1;exitX=0;exitY=0.5;exitDx=0;exitDy=0;entryX=0.5;entryY=1;entryDx=0;entryDy=0;fontFamily=Comic Sans MS;" parent="1" source="NDg6Oueld_C1ia3fCb1J-13" target="NDg6Oueld_C1ia3fCb1J-102" edge="1">
          <mxGeometry relative="1" as="geometry">
            <Array as="points">
              <mxPoint x="475" y="420" />
            </Array>
          </mxGeometry>
        </mxCell>
        <mxCell id="NDg6Oueld_C1ia3fCb1J-13" value="" style="rounded=1;whiteSpace=wrap;html=1;fontFamily=Comic Sans MS;fillColor=#f8cecc;strokeColor=#b85450;" parent="1" vertex="1">
          <mxGeometry x="550" y="250" width="260" height="340" as="geometry" />
        </mxCell>
        <mxCell id="NDg6Oueld_C1ia3fCb1J-14" value="The thread&#39;s looper &lt;br&gt;that loop the message" style="text;html=1;strokeColor=none;fillColor=none;align=center;verticalAlign=middle;whiteSpace=wrap;rounded=0;fontFamily=Comic Sans MS;" parent="1" vertex="1">
          <mxGeometry x="534" y="280" width="190" height="20" as="geometry" />
        </mxCell>
        <mxCell id="NDg6Oueld_C1ia3fCb1J-17" value="" style="rounded=0;whiteSpace=wrap;html=1;fontFamily=Comic Sans MS;fillColor=#fff2cc;strokeColor=#d6b656;" parent="1" vertex="1">
          <mxGeometry x="640" y="330" width="120" height="250" as="geometry" />
        </mxCell>
        <mxCell id="NDg6Oueld_C1ia3fCb1J-18" value="MessageQueue" style="text;html=1;strokeColor=none;fillColor=none;align=center;verticalAlign=middle;whiteSpace=wrap;rounded=0;fontFamily=Comic Sans MS;" parent="1" vertex="1">
          <mxGeometry x="680" y="340" width="40" height="20" as="geometry" />
        </mxCell>
        <mxCell id="NDg6Oueld_C1ia3fCb1J-29" style="edgeStyle=orthogonalEdgeStyle;rounded=0;orthogonalLoop=1;jettySize=auto;html=1;exitX=0.5;exitY=1;exitDx=0;exitDy=0;entryX=0.5;entryY=1;entryDx=0;entryDy=0;fontFamily=Comic Sans MS;" parent="1" source="NDg6Oueld_C1ia3fCb1J-21" target="NDg6Oueld_C1ia3fCb1J-31" edge="1">
          <mxGeometry relative="1" as="geometry">
            <Array as="points">
              <mxPoint x="125" y="650" />
              <mxPoint x="700" y="650" />
            </Array>
          </mxGeometry>
        </mxCell>
        <mxCell id="NDg6Oueld_C1ia3fCb1J-21" value="Message.Handler = Handler&lt;span style=&quot;white-space: normal&quot;&gt;&lt;br&gt;&lt;/span&gt;" style="rounded=1;whiteSpace=wrap;html=1;fontFamily=Comic Sans MS;" parent="1" vertex="1">
          <mxGeometry x="40" y="430" width="170" height="50" as="geometry" />
        </mxCell>
        <mxCell id="qWdJZLPwKeQH4qqhE-X6-7" style="edgeStyle=orthogonalEdgeStyle;rounded=0;orthogonalLoop=1;jettySize=auto;html=1;exitX=0.5;exitY=0;exitDx=0;exitDy=0;entryX=1;entryY=0.5;entryDx=0;entryDy=0;fontFamily=Comic Sans MS;" parent="1" source="NDg6Oueld_C1ia3fCb1J-23" target="qWdJZLPwKeQH4qqhE-X6-2" edge="1">
          <mxGeometry relative="1" as="geometry" />
        </mxCell>
        <mxCell id="NDg6Oueld_C1ia3fCb1J-23" value="message" style="rounded=0;whiteSpace=wrap;html=1;fontFamily=Comic Sans MS;" parent="1" vertex="1">
          <mxGeometry x="647.5" y="380" width="105" height="30" as="geometry" />
        </mxCell>
        <mxCell id="n6KTwlOW_15QvZ3awUx1-7" style="edgeStyle=orthogonalEdgeStyle;rounded=0;orthogonalLoop=1;jettySize=auto;html=1;exitX=0.5;exitY=0;exitDx=0;exitDy=0;entryX=0.5;entryY=1;entryDx=0;entryDy=0;fontFamily=Comic Sans MS;" parent="1" source="NDg6Oueld_C1ia3fCb1J-27" target="NDg6Oueld_C1ia3fCb1J-23" edge="1">
          <mxGeometry relative="1" as="geometry" />
        </mxCell>
        <mxCell id="NDg6Oueld_C1ia3fCb1J-27" value="message" style="rounded=0;whiteSpace=wrap;html=1;fontFamily=Comic Sans MS;" parent="1" vertex="1">
          <mxGeometry x="647.5" y="430" width="105" height="30" as="geometry" />
        </mxCell>
        <mxCell id="n6KTwlOW_15QvZ3awUx1-5" style="edgeStyle=orthogonalEdgeStyle;rounded=0;orthogonalLoop=1;jettySize=auto;html=1;exitX=0.5;exitY=0;exitDx=0;exitDy=0;entryX=0.5;entryY=1;entryDx=0;entryDy=0;fontFamily=Comic Sans MS;" parent="1" source="NDg6Oueld_C1ia3fCb1J-28" target="NDg6Oueld_C1ia3fCb1J-27" edge="1">
          <mxGeometry relative="1" as="geometry" />
        </mxCell>
        <mxCell id="NDg6Oueld_C1ia3fCb1J-28" value="..." style="rounded=0;whiteSpace=wrap;html=1;fontFamily=Comic Sans MS;" parent="1" vertex="1">
          <mxGeometry x="647.5" y="480" width="105" height="30" as="geometry" />
        </mxCell>
        <mxCell id="n6KTwlOW_15QvZ3awUx1-3" style="edgeStyle=orthogonalEdgeStyle;rounded=0;orthogonalLoop=1;jettySize=auto;html=1;exitX=0.5;exitY=0;exitDx=0;exitDy=0;entryX=0.5;entryY=1;entryDx=0;entryDy=0;fontFamily=Comic Sans MS;" parent="1" source="NDg6Oueld_C1ia3fCb1J-31" target="NDg6Oueld_C1ia3fCb1J-28" edge="1">
          <mxGeometry relative="1" as="geometry" />
        </mxCell>
        <mxCell id="NDg6Oueld_C1ia3fCb1J-31" value="message" style="rounded=0;whiteSpace=wrap;html=1;fontFamily=Comic Sans MS;" parent="1" vertex="1">
          <mxGeometry x="647.5" y="530" width="105" height="30" as="geometry" />
        </mxCell>
        <mxCell id="NDg6Oueld_C1ia3fCb1J-36" value="2、Loop.myLooper()" style="text;html=1;strokeColor=none;fillColor=none;align=center;verticalAlign=middle;whiteSpace=wrap;rounded=0;fontFamily=Comic Sans MS;" parent="1" vertex="1">
          <mxGeometry x="420" y="370" width="114" height="20" as="geometry" />
        </mxCell>
        <mxCell id="NDg6Oueld_C1ia3fCb1J-37" value="1、Loop.prepare()" style="text;html=1;strokeColor=none;fillColor=none;align=center;verticalAlign=middle;whiteSpace=wrap;rounded=0;fontFamily=Comic Sans MS;" parent="1" vertex="1">
          <mxGeometry x="460" y="220" width="145" height="20" as="geometry" />
        </mxCell>
        <mxCell id="NDg6Oueld_C1ia3fCb1J-96" style="edgeStyle=orthogonalEdgeStyle;rounded=0;orthogonalLoop=1;jettySize=auto;html=1;exitX=0.5;exitY=1;exitDx=0;exitDy=0;entryX=0.5;entryY=0;entryDx=0;entryDy=0;fontFamily=Comic Sans MS;" parent="1" source="NDg6Oueld_C1ia3fCb1J-53" target="NDg6Oueld_C1ia3fCb1J-21" edge="1">
          <mxGeometry relative="1" as="geometry">
            <mxPoint x="125" y="320" as="targetPoint" />
          </mxGeometry>
        </mxCell>
        <mxCell id="NDg6Oueld_C1ia3fCb1J-53" value="Message" style="rounded=0;whiteSpace=wrap;html=1;fontFamily=Comic Sans MS;" parent="1" vertex="1">
          <mxGeometry x="60" y="230" width="130" height="40" as="geometry" />
        </mxCell>
        <mxCell id="NDg6Oueld_C1ia3fCb1J-60" value="7、Message.Handler.dispatchMessage(message)" style="text;html=1;strokeColor=none;fillColor=none;align=center;verticalAlign=middle;whiteSpace=wrap;rounded=0;fontFamily=Comic Sans MS;" parent="1" vertex="1">
          <mxGeometry x="290" y="140" width="40" height="20" as="geometry" />
        </mxCell>
        <mxCell id="NDg6Oueld_C1ia3fCb1J-70" value="Receive the message and handle it" style="rounded=1;whiteSpace=wrap;html=1;fontFamily=Comic Sans MS;" parent="1" vertex="1">
          <mxGeometry x="420" y="470" width="110" height="60" as="geometry" />
        </mxCell>
        <mxCell id="qWdJZLPwKeQH4qqhE-X6-15" style="edgeStyle=orthogonalEdgeStyle;rounded=0;orthogonalLoop=1;jettySize=auto;html=1;exitX=0.5;exitY=0;exitDx=0;exitDy=0;entryX=0.25;entryY=1;entryDx=0;entryDy=0;fontFamily=Comic Sans MS;dashed=1;strokeColor=#FF3333;" parent="1" source="NDg6Oueld_C1ia3fCb1J-41" target="qWdJZLPwKeQH4qqhE-X6-4" edge="1">
          <mxGeometry relative="1" as="geometry" />
        </mxCell>
        <mxCell id="NDg6Oueld_C1ia3fCb1J-41" value="3、Looper.loop()" style="text;html=1;strokeColor=none;fillColor=none;align=center;verticalAlign=middle;whiteSpace=wrap;rounded=0;fontFamily=Comic Sans MS;" parent="1" vertex="1">
          <mxGeometry x="710" y="280" width="95" height="20" as="geometry" />
        </mxCell>
        <mxCell id="NDg6Oueld_C1ia3fCb1J-85" value="5、Handler.Looper.MessageQueue.enqueueMessage(message)" style="text;html=1;strokeColor=none;fillColor=none;align=center;verticalAlign=middle;whiteSpace=wrap;rounded=0;fontFamily=Comic Sans MS;" parent="1" vertex="1">
          <mxGeometry x="394" y="622.5" width="40" height="20" as="geometry" />
        </mxCell>
        <mxCell id="NDg6Oueld_C1ia3fCb1J-90" value="8、&lt;br&gt;Handler&lt;br&gt;.handleMessage(message)" style="text;html=1;strokeColor=none;fillColor=none;align=center;verticalAlign=middle;whiteSpace=wrap;rounded=0;fontFamily=Comic Sans MS;" parent="1" vertex="1">
          <mxGeometry x="300" y="390" width="40" height="20" as="geometry" />
        </mxCell>
        <mxCell id="NDg6Oueld_C1ia3fCb1J-100" value="4、Handler.sendMessage(message)" style="text;html=1;fontFamily=Comic Sans MS;" parent="1" vertex="1">
          <mxGeometry x="25" y="360" width="200" height="30" as="geometry" />
        </mxCell>
        <mxCell id="NDg6Oueld_C1ia3fCb1J-105" style="edgeStyle=orthogonalEdgeStyle;rounded=0;orthogonalLoop=1;jettySize=auto;html=1;exitX=0;exitY=0.5;exitDx=0;exitDy=0;entryX=1;entryY=0.5;entryDx=0;entryDy=0;fontFamily=Comic Sans MS;" parent="1" source="NDg6Oueld_C1ia3fCb1J-102" target="NDg6Oueld_C1ia3fCb1J-10" edge="1">
          <mxGeometry relative="1" as="geometry" />
        </mxCell>
        <mxCell id="NDg6Oueld_C1ia3fCb1J-102" value="Handler.Looper=Looper" style="rounded=1;whiteSpace=wrap;html=1;fontFamily=Comic Sans MS;" parent="1" vertex="1">
          <mxGeometry x="410" y="280" width="130" height="60" as="geometry" />
        </mxCell>
        <mxCell id="n6KTwlOW_15QvZ3awUx1-1" value="draw by zhangchaozhou" style="text;html=1;strokeColor=none;fillColor=none;align=center;verticalAlign=middle;whiteSpace=wrap;rounded=0;fontFamily=Comic Sans MS;" parent="1" vertex="1">
          <mxGeometry x="20" y="140" width="140" height="20" as="geometry" />
        </mxCell>
        <mxCell id="qWdJZLPwKeQH4qqhE-X6-8" style="edgeStyle=orthogonalEdgeStyle;rounded=0;orthogonalLoop=1;jettySize=auto;html=1;exitX=0;exitY=0.5;exitDx=0;exitDy=0;entryX=0.5;entryY=0;entryDx=0;entryDy=0;fontFamily=Comic Sans MS;" parent="1" source="qWdJZLPwKeQH4qqhE-X6-2" target="NDg6Oueld_C1ia3fCb1J-10" edge="1">
          <mxGeometry relative="1" as="geometry" />
        </mxCell>
        <mxCell id="qWdJZLPwKeQH4qqhE-X6-2" value="Message" style="rounded=1;whiteSpace=wrap;html=1;fontFamily=Comic Sans MS;align=center;" parent="1" vertex="1">
          <mxGeometry x="465" y="80" width="110" height="40" as="geometry" />
        </mxCell>
        <mxCell id="qWdJZLPwKeQH4qqhE-X6-4" value="6、Looper.MessageQueue.next()" style="text;html=1;strokeColor=none;fillColor=none;align=center;verticalAlign=middle;whiteSpace=wrap;rounded=0;fontFamily=Comic Sans MS;" parent="1" vertex="1">
          <mxGeometry x="660" y="130" width="40" height="20" as="geometry" />
        </mxCell>
        <mxCell id="qWdJZLPwKeQH4qqhE-X6-17" value="loop" style="text;html=1;strokeColor=none;fillColor=none;align=center;verticalAlign=middle;whiteSpace=wrap;rounded=0;fontFamily=Comic Sans MS;fontColor=#FF3333;" parent="1" vertex="1">
          <mxGeometry x="710" y="200" width="40" height="20" as="geometry" />
        </mxCell>
      </root>
    </mxGraphModel>
  </diagram>
  <diagram id="Ol41yCvJ7Pt2STTNzjGf" name="Page-2">
    <mxGraphModel dx="946" dy="530" grid="1" gridSize="10" guides="1" tooltips="1" connect="1" arrows="1" fold="1" page="1" pageScale="1" pageWidth="827" pageHeight="1169" math="0" shadow="0">
      <root>
        <mxCell id="hOnsdg-134dhtUqyOOim-0" />
        <mxCell id="hOnsdg-134dhtUqyOOim-1" parent="hOnsdg-134dhtUqyOOim-0" />
        <mxCell id="dVyXZWPvLjzpAlypHrI1-0" value="" style="rounded=0;whiteSpace=wrap;html=1;fillColor=#d5e8d4;strokeColor=#82b366;" vertex="1" parent="hOnsdg-134dhtUqyOOim-1">
          <mxGeometry x="150" y="730" width="570" height="480" as="geometry" />
        </mxCell>
        <mxCell id="dVyXZWPvLjzpAlypHrI1-1" style="edgeStyle=orthogonalEdgeStyle;rounded=0;orthogonalLoop=1;jettySize=auto;html=1;exitX=1;exitY=0.5;exitDx=0;exitDy=0;entryX=0;entryY=0.5;entryDx=0;entryDy=0;dashed=1;fontFamily=Comic Sans MS;fontColor=#000000;" edge="1" parent="hOnsdg-134dhtUqyOOim-1" source="dVyXZWPvLjzpAlypHrI1-2" target="dVyXZWPvLjzpAlypHrI1-4">
          <mxGeometry relative="1" as="geometry" />
        </mxCell>
        <mxCell id="dVyXZWPvLjzpAlypHrI1-2" value="&lt;font color=&quot;#000000&quot;&gt;p/mMessages&lt;/font&gt;" style="text;html=1;strokeColor=none;fillColor=none;align=center;verticalAlign=middle;whiteSpace=wrap;rounded=0;fontFamily=Comic Sans MS;fontColor=#FF3333;" vertex="1" parent="hOnsdg-134dhtUqyOOim-1">
          <mxGeometry x="290" y="845" width="70" height="20" as="geometry" />
        </mxCell>
        <mxCell id="dVyXZWPvLjzpAlypHrI1-3" value="" style="group" vertex="1" connectable="0" parent="hOnsdg-134dhtUqyOOim-1">
          <mxGeometry x="420" y="840" width="160" height="30" as="geometry" />
        </mxCell>
        <mxCell id="dVyXZWPvLjzpAlypHrI1-4" value="null" style="rounded=0;whiteSpace=wrap;html=1;fontFamily=Comic Sans MS;fontColor=#FF3333;align=center;" vertex="1" parent="dVyXZWPvLjzpAlypHrI1-3">
          <mxGeometry width="80" height="30" as="geometry" />
        </mxCell>
        <mxCell id="dVyXZWPvLjzpAlypHrI1-5" value="" style="group" vertex="1" connectable="0" parent="hOnsdg-134dhtUqyOOim-1">
          <mxGeometry x="420" y="890" width="160" height="30" as="geometry" />
        </mxCell>
        <mxCell id="dVyXZWPvLjzpAlypHrI1-6" value="msg" style="rounded=0;whiteSpace=wrap;html=1;fontFamily=Comic Sans MS;fontColor=#FF3333;align=center;" vertex="1" parent="dVyXZWPvLjzpAlypHrI1-5">
          <mxGeometry width="80" height="30" as="geometry" />
        </mxCell>
        <mxCell id="dVyXZWPvLjzpAlypHrI1-7" value="next" style="rounded=0;whiteSpace=wrap;html=1;fontFamily=Comic Sans MS;fontColor=#FF3333;align=center;" vertex="1" parent="dVyXZWPvLjzpAlypHrI1-5">
          <mxGeometry x="80" width="80" height="30" as="geometry" />
        </mxCell>
        <mxCell id="dVyXZWPvLjzpAlypHrI1-8" style="edgeStyle=orthogonalEdgeStyle;rounded=0;orthogonalLoop=1;jettySize=auto;html=1;exitX=1;exitY=0.5;exitDx=0;exitDy=0;entryX=0;entryY=0.5;entryDx=0;entryDy=0;dashed=1;fontFamily=Comic Sans MS;fontColor=#000000;" edge="1" parent="hOnsdg-134dhtUqyOOim-1" source="dVyXZWPvLjzpAlypHrI1-9" target="dVyXZWPvLjzpAlypHrI1-6">
          <mxGeometry relative="1" as="geometry" />
        </mxCell>
        <mxCell id="dVyXZWPvLjzpAlypHrI1-9" value="msg" style="text;html=1;strokeColor=none;fillColor=none;align=center;verticalAlign=middle;whiteSpace=wrap;rounded=0;fontFamily=Comic Sans MS;fontColor=#000000;" vertex="1" parent="hOnsdg-134dhtUqyOOim-1">
          <mxGeometry x="320" y="895" width="40" height="20" as="geometry" />
        </mxCell>
        <mxCell id="dVyXZWPvLjzpAlypHrI1-10" style="edgeStyle=orthogonalEdgeStyle;rounded=0;orthogonalLoop=1;jettySize=auto;html=1;exitX=1;exitY=0.5;exitDx=0;exitDy=0;entryX=0;entryY=0.5;entryDx=0;entryDy=0;dashed=1;fontFamily=Comic Sans MS;fontColor=#000000;" edge="1" parent="hOnsdg-134dhtUqyOOim-1" source="dVyXZWPvLjzpAlypHrI1-11" target="dVyXZWPvLjzpAlypHrI1-13">
          <mxGeometry relative="1" as="geometry" />
        </mxCell>
        <mxCell id="dVyXZWPvLjzpAlypHrI1-11" value="&lt;font color=&quot;#000000&quot;&gt;p/mMessages&lt;/font&gt;" style="text;html=1;strokeColor=none;fillColor=none;align=center;verticalAlign=middle;whiteSpace=wrap;rounded=0;fontFamily=Comic Sans MS;fontColor=#FF3333;" vertex="1" parent="hOnsdg-134dhtUqyOOim-1">
          <mxGeometry x="300" y="955" width="70" height="20" as="geometry" />
        </mxCell>
        <mxCell id="dVyXZWPvLjzpAlypHrI1-12" value="" style="group" vertex="1" connectable="0" parent="hOnsdg-134dhtUqyOOim-1">
          <mxGeometry x="420" y="950" width="160" height="30" as="geometry" />
        </mxCell>
        <mxCell id="dVyXZWPvLjzpAlypHrI1-13" value="null" style="rounded=0;whiteSpace=wrap;html=1;fontFamily=Comic Sans MS;fontColor=#FF3333;align=center;" vertex="1" parent="dVyXZWPvLjzpAlypHrI1-12">
          <mxGeometry width="80" height="30" as="geometry" />
        </mxCell>
        <mxCell id="dVyXZWPvLjzpAlypHrI1-14" value="" style="group" vertex="1" connectable="0" parent="hOnsdg-134dhtUqyOOim-1">
          <mxGeometry x="420" y="1010" width="160" height="30" as="geometry" />
        </mxCell>
        <mxCell id="dVyXZWPvLjzpAlypHrI1-15" value="msg" style="rounded=0;whiteSpace=wrap;html=1;fontFamily=Comic Sans MS;fontColor=#FF3333;align=center;" vertex="1" parent="dVyXZWPvLjzpAlypHrI1-14">
          <mxGeometry width="80" height="30" as="geometry" />
        </mxCell>
        <mxCell id="dVyXZWPvLjzpAlypHrI1-16" value="next" style="rounded=0;whiteSpace=wrap;html=1;fontFamily=Comic Sans MS;fontColor=#FF3333;align=center;" vertex="1" parent="dVyXZWPvLjzpAlypHrI1-14">
          <mxGeometry x="80" width="80" height="30" as="geometry" />
        </mxCell>
        <mxCell id="dVyXZWPvLjzpAlypHrI1-17" style="edgeStyle=orthogonalEdgeStyle;rounded=0;orthogonalLoop=1;jettySize=auto;html=1;exitX=1;exitY=0.5;exitDx=0;exitDy=0;entryX=0;entryY=0.5;entryDx=0;entryDy=0;dashed=1;fontFamily=Comic Sans MS;fontColor=#000000;" edge="1" parent="hOnsdg-134dhtUqyOOim-1" source="dVyXZWPvLjzpAlypHrI1-18" target="dVyXZWPvLjzpAlypHrI1-15">
          <mxGeometry relative="1" as="geometry" />
        </mxCell>
        <mxCell id="dVyXZWPvLjzpAlypHrI1-18" value="msg" style="text;html=1;strokeColor=none;fillColor=none;align=center;verticalAlign=middle;whiteSpace=wrap;rounded=0;fontFamily=Comic Sans MS;fontColor=#000000;" vertex="1" parent="hOnsdg-134dhtUqyOOim-1">
          <mxGeometry x="315" y="1015" width="40" height="20" as="geometry" />
        </mxCell>
        <mxCell id="dVyXZWPvLjzpAlypHrI1-19" style="edgeStyle=orthogonalEdgeStyle;rounded=0;orthogonalLoop=1;jettySize=auto;html=1;exitX=1;exitY=0.5;exitDx=0;exitDy=0;entryX=0;entryY=0.5;entryDx=0;entryDy=0;dashed=1;fontFamily=Comic Sans MS;fontColor=#000000;" edge="1" parent="hOnsdg-134dhtUqyOOim-1" source="dVyXZWPvLjzpAlypHrI1-16" target="dVyXZWPvLjzpAlypHrI1-13">
          <mxGeometry relative="1" as="geometry">
            <Array as="points">
              <mxPoint x="600" y="1025" />
              <mxPoint x="600" y="1000" />
              <mxPoint x="400" y="1000" />
              <mxPoint x="400" y="965" />
            </Array>
          </mxGeometry>
        </mxCell>
        <mxCell id="dVyXZWPvLjzpAlypHrI1-20" value="" style="group" vertex="1" connectable="0" parent="hOnsdg-134dhtUqyOOim-1">
          <mxGeometry x="420" y="1110" width="160" height="30" as="geometry" />
        </mxCell>
        <mxCell id="dVyXZWPvLjzpAlypHrI1-21" value="null" style="rounded=0;whiteSpace=wrap;html=1;fontFamily=Comic Sans MS;fontColor=#FF3333;align=center;" vertex="1" parent="dVyXZWPvLjzpAlypHrI1-20">
          <mxGeometry y="-40" width="80" height="30" as="geometry" />
        </mxCell>
        <mxCell id="dVyXZWPvLjzpAlypHrI1-22" value="" style="group" vertex="1" connectable="0" parent="hOnsdg-134dhtUqyOOim-1">
          <mxGeometry x="420" y="1130" width="160" height="30" as="geometry" />
        </mxCell>
        <mxCell id="dVyXZWPvLjzpAlypHrI1-23" value="msg" style="rounded=0;whiteSpace=wrap;html=1;fontFamily=Comic Sans MS;fontColor=#FF3333;align=center;" vertex="1" parent="dVyXZWPvLjzpAlypHrI1-22">
          <mxGeometry width="80" height="30" as="geometry" />
        </mxCell>
        <mxCell id="dVyXZWPvLjzpAlypHrI1-24" value="next" style="rounded=0;whiteSpace=wrap;html=1;fontFamily=Comic Sans MS;fontColor=#FF3333;align=center;" vertex="1" parent="dVyXZWPvLjzpAlypHrI1-22">
          <mxGeometry x="80" width="80" height="30" as="geometry" />
        </mxCell>
        <mxCell id="dVyXZWPvLjzpAlypHrI1-25" style="edgeStyle=orthogonalEdgeStyle;rounded=0;orthogonalLoop=1;jettySize=auto;html=1;exitX=1;exitY=0.5;exitDx=0;exitDy=0;entryX=0;entryY=0.5;entryDx=0;entryDy=0;dashed=1;fontFamily=Comic Sans MS;fontColor=#000000;" edge="1" parent="hOnsdg-134dhtUqyOOim-1" source="dVyXZWPvLjzpAlypHrI1-26" target="dVyXZWPvLjzpAlypHrI1-23">
          <mxGeometry relative="1" as="geometry" />
        </mxCell>
        <mxCell id="dVyXZWPvLjzpAlypHrI1-26" value="&lt;span style=&quot;color: rgba(0 , 0 , 0 , 0) ; font-family: monospace ; font-size: 0px ; white-space: nowrap&quot;&gt;%3CmxGraphModel%3E%3Croot%3E%3CmxCell%20id%3D%220%22%2F%3E%3CmxCell%20id%3D%221%22%20parent%3D%220%22%2F%3E%3CmxCell%20id%3D%222%22%20value%3D%22%26lt%3Bfont%20color%3D%26quot%3B%23000000%26quot%3B%26gt%3BmMessages%26lt%3B%2Ffont%26gt%3B%22%20style%3D%22text%3Bhtml%3D1%3BstrokeColor%3Dnone%3BfillColor%3Dnone%3Balign%3Dcenter%3BverticalAlign%3Dmiddle%3BwhiteSpace%3Dwrap%3Brounded%3D0%3BfontFamily%3DComic%20Sans%20MS%3BfontColor%3D%23FF3333%3B%22%20vertex%3D%221%22%20parent%3D%221%22%3E%3CmxGeometry%20x%3D%2250%22%20y%3D%221235%22%20width%3D%2270%22%20height%3D%2220%22%20as%3D%22geometry%22%2F%3E%3C%2FmxCell%3E%3C%2Froot%3E%3C%2FmxGraphModel%3E&lt;/span&gt;mMessages/msg" style="text;html=1;strokeColor=none;fillColor=none;align=center;verticalAlign=middle;whiteSpace=wrap;rounded=0;fontFamily=Comic Sans MS;fontColor=#000000;" vertex="1" parent="hOnsdg-134dhtUqyOOim-1">
          <mxGeometry x="260" y="1135" width="95" height="20" as="geometry" />
        </mxCell>
        <mxCell id="dVyXZWPvLjzpAlypHrI1-27" style="edgeStyle=orthogonalEdgeStyle;rounded=0;orthogonalLoop=1;jettySize=auto;html=1;exitX=1;exitY=0.5;exitDx=0;exitDy=0;entryX=0;entryY=0.5;entryDx=0;entryDy=0;dashed=1;fontFamily=Comic Sans MS;fontColor=#000000;" edge="1" parent="hOnsdg-134dhtUqyOOim-1" source="dVyXZWPvLjzpAlypHrI1-24" target="dVyXZWPvLjzpAlypHrI1-21">
          <mxGeometry relative="1" as="geometry">
            <Array as="points">
              <mxPoint x="600" y="1145" />
              <mxPoint x="600" y="1120" />
              <mxPoint x="400" y="1120" />
              <mxPoint x="400" y="1085" />
            </Array>
          </mxGeometry>
        </mxCell>
        <mxCell id="dVyXZWPvLjzpAlypHrI1-28" value="p=mMessages" style="text;html=1;strokeColor=none;fillColor=none;align=left;verticalAlign=middle;whiteSpace=wrap;rounded=0;fontFamily=Comic Sans MS;fontColor=#FF3333;" vertex="1" parent="hOnsdg-134dhtUqyOOim-1">
          <mxGeometry x="250" y="770" width="80" height="20" as="geometry" />
        </mxCell>
        <mxCell id="dVyXZWPvLjzpAlypHrI1-29" value="msg.next=p" style="text;html=1;strokeColor=none;fillColor=none;align=left;verticalAlign=middle;whiteSpace=wrap;rounded=0;fontFamily=Comic Sans MS;fontColor=#FF3333;" vertex="1" parent="hOnsdg-134dhtUqyOOim-1">
          <mxGeometry x="250" y="920" width="85" height="20" as="geometry" />
        </mxCell>
        <mxCell id="dVyXZWPvLjzpAlypHrI1-30" value="mMessages=msg" style="text;html=1;strokeColor=none;fillColor=none;align=left;verticalAlign=middle;whiteSpace=wrap;rounded=0;fontFamily=Comic Sans MS;fontColor=#FF3333;" vertex="1" parent="hOnsdg-134dhtUqyOOim-1">
          <mxGeometry x="250" y="1049" width="100" height="20" as="geometry" />
        </mxCell>
        <mxCell id="dVyXZWPvLjzpAlypHrI1-31" value="p==null" style="text;html=1;strokeColor=none;fillColor=none;align=left;verticalAlign=middle;whiteSpace=wrap;rounded=0;fontFamily=Comic Sans MS;fontColor=#FF3333;" vertex="1" parent="hOnsdg-134dhtUqyOOim-1">
          <mxGeometry x="250" y="810" width="225" height="20" as="geometry" />
        </mxCell>
        <mxCell id="Ll2ph6K7Ih2NYyMhxkJO-1" style="edgeStyle=orthogonalEdgeStyle;rounded=0;orthogonalLoop=1;jettySize=auto;html=1;exitX=1;exitY=0.5;exitDx=0;exitDy=0;dashed=1;fontFamily=Comic Sans MS;fontColor=#FF3333;entryX=0;entryY=0.5;entryDx=0;entryDy=0;" edge="1" parent="hOnsdg-134dhtUqyOOim-1" source="Ll2ph6K7Ih2NYyMhxkJO-0" target="dVyXZWPvLjzpAlypHrI1-21">
          <mxGeometry relative="1" as="geometry">
            <mxPoint x="410" y="1080" as="targetPoint" />
          </mxGeometry>
        </mxCell>
        <mxCell id="Ll2ph6K7Ih2NYyMhxkJO-0" value="&lt;font color=&quot;#000000&quot;&gt;p&lt;/font&gt;" style="text;html=1;strokeColor=none;fillColor=none;align=center;verticalAlign=middle;whiteSpace=wrap;rounded=0;fontFamily=Comic Sans MS;fontColor=#FF3333;" vertex="1" parent="hOnsdg-134dhtUqyOOim-1">
          <mxGeometry x="340" y="1075" width="30" height="20" as="geometry" />
        </mxCell>
      </root>
    </mxGraphModel>
  </diagram>
  <diagram id="YBWv9rqkxj3TFhi7tK9a" name="Page-3">
    <mxGraphModel dx="1773" dy="530" grid="1" gridSize="10" guides="1" tooltips="1" connect="1" arrows="1" fold="1" page="1" pageScale="1" pageWidth="827" pageHeight="1169" math="0" shadow="0">
      <root>
        <mxCell id="lSpqPUL3MFrTZzDCxyyv-0" />
        <mxCell id="lSpqPUL3MFrTZzDCxyyv-1" parent="lSpqPUL3MFrTZzDCxyyv-0" />
        <mxCell id="tG9Fmj4x7ONxdbPkzslM-0" value="" style="rounded=0;whiteSpace=wrap;html=1;fillColor=#d5e8d4;strokeColor=#82b366;" vertex="1" parent="lSpqPUL3MFrTZzDCxyyv-1">
          <mxGeometry x="-100" y="850" width="710" height="480" as="geometry" />
        </mxCell>
        <mxCell id="tG9Fmj4x7ONxdbPkzslM-51" style="edgeStyle=orthogonalEdgeStyle;rounded=0;orthogonalLoop=1;jettySize=auto;html=1;exitX=1;exitY=0.5;exitDx=0;exitDy=0;entryX=0;entryY=0.5;entryDx=0;entryDy=0;dashed=1;fontFamily=Comic Sans MS;fontColor=#000000;" edge="1" parent="lSpqPUL3MFrTZzDCxyyv-1" source="tG9Fmj4x7ONxdbPkzslM-52">
          <mxGeometry relative="1" as="geometry">
            <mxPoint x="170" y="975" as="targetPoint" />
          </mxGeometry>
        </mxCell>
        <mxCell id="tG9Fmj4x7ONxdbPkzslM-52" value="&lt;font color=&quot;#000000&quot;&gt;p/mMessages&lt;/font&gt;" style="text;html=1;strokeColor=none;fillColor=none;align=center;verticalAlign=middle;whiteSpace=wrap;rounded=0;fontFamily=Comic Sans MS;fontColor=#FF3333;" vertex="1" parent="lSpqPUL3MFrTZzDCxyyv-1">
          <mxGeometry x="40" y="965" width="70" height="20" as="geometry" />
        </mxCell>
        <mxCell id="tG9Fmj4x7ONxdbPkzslM-55" value="" style="group" vertex="1" connectable="0" parent="lSpqPUL3MFrTZzDCxyyv-1">
          <mxGeometry x="170" y="1010" width="160" height="30" as="geometry" />
        </mxCell>
        <mxCell id="tG9Fmj4x7ONxdbPkzslM-56" value="msg" style="rounded=0;whiteSpace=wrap;html=1;fontFamily=Comic Sans MS;fontColor=#FF3333;align=center;" vertex="1" parent="tG9Fmj4x7ONxdbPkzslM-55">
          <mxGeometry width="80" height="30" as="geometry" />
        </mxCell>
        <mxCell id="tG9Fmj4x7ONxdbPkzslM-57" value="next" style="rounded=0;whiteSpace=wrap;html=1;fontFamily=Comic Sans MS;fontColor=#FF3333;align=center;" vertex="1" parent="tG9Fmj4x7ONxdbPkzslM-55">
          <mxGeometry x="80" width="80" height="30" as="geometry" />
        </mxCell>
        <mxCell id="tG9Fmj4x7ONxdbPkzslM-58" style="edgeStyle=orthogonalEdgeStyle;rounded=0;orthogonalLoop=1;jettySize=auto;html=1;exitX=1;exitY=0.5;exitDx=0;exitDy=0;entryX=0;entryY=0.5;entryDx=0;entryDy=0;dashed=1;fontFamily=Comic Sans MS;fontColor=#000000;" edge="1" parent="lSpqPUL3MFrTZzDCxyyv-1" source="tG9Fmj4x7ONxdbPkzslM-59" target="tG9Fmj4x7ONxdbPkzslM-56">
          <mxGeometry relative="1" as="geometry" />
        </mxCell>
        <mxCell id="tG9Fmj4x7ONxdbPkzslM-59" value="msg" style="text;html=1;strokeColor=none;fillColor=none;align=center;verticalAlign=middle;whiteSpace=wrap;rounded=0;fontFamily=Comic Sans MS;fontColor=#000000;" vertex="1" parent="lSpqPUL3MFrTZzDCxyyv-1">
          <mxGeometry x="70" y="1015" width="40" height="20" as="geometry" />
        </mxCell>
        <mxCell id="tG9Fmj4x7ONxdbPkzslM-60" style="edgeStyle=orthogonalEdgeStyle;rounded=0;orthogonalLoop=1;jettySize=auto;html=1;exitX=1;exitY=0.5;exitDx=0;exitDy=0;entryX=0;entryY=0.5;entryDx=0;entryDy=0;dashed=1;fontFamily=Comic Sans MS;fontColor=#000000;" edge="1" parent="lSpqPUL3MFrTZzDCxyyv-1" source="tG9Fmj4x7ONxdbPkzslM-61">
          <mxGeometry relative="1" as="geometry">
            <mxPoint x="170" y="1085" as="targetPoint" />
          </mxGeometry>
        </mxCell>
        <mxCell id="tG9Fmj4x7ONxdbPkzslM-61" value="&lt;font color=&quot;#000000&quot;&gt;p/mMessages&lt;/font&gt;" style="text;html=1;strokeColor=none;fillColor=none;align=center;verticalAlign=middle;whiteSpace=wrap;rounded=0;fontFamily=Comic Sans MS;fontColor=#FF3333;" vertex="1" parent="lSpqPUL3MFrTZzDCxyyv-1">
          <mxGeometry x="50" y="1075" width="70" height="20" as="geometry" />
        </mxCell>
        <mxCell id="tG9Fmj4x7ONxdbPkzslM-64" value="" style="group" vertex="1" connectable="0" parent="lSpqPUL3MFrTZzDCxyyv-1">
          <mxGeometry x="170" y="1130" width="160" height="30" as="geometry" />
        </mxCell>
        <mxCell id="tG9Fmj4x7ONxdbPkzslM-65" value="msg" style="rounded=0;whiteSpace=wrap;html=1;fontFamily=Comic Sans MS;fontColor=#FF3333;align=center;" vertex="1" parent="tG9Fmj4x7ONxdbPkzslM-64">
          <mxGeometry width="80" height="30" as="geometry" />
        </mxCell>
        <mxCell id="tG9Fmj4x7ONxdbPkzslM-66" value="next" style="rounded=0;whiteSpace=wrap;html=1;fontFamily=Comic Sans MS;fontColor=#FF3333;align=center;" vertex="1" parent="tG9Fmj4x7ONxdbPkzslM-64">
          <mxGeometry x="80" width="80" height="30" as="geometry" />
        </mxCell>
        <mxCell id="tG9Fmj4x7ONxdbPkzslM-67" style="edgeStyle=orthogonalEdgeStyle;rounded=0;orthogonalLoop=1;jettySize=auto;html=1;exitX=1;exitY=0.5;exitDx=0;exitDy=0;entryX=0;entryY=0.5;entryDx=0;entryDy=0;dashed=1;fontFamily=Comic Sans MS;fontColor=#000000;" edge="1" parent="lSpqPUL3MFrTZzDCxyyv-1" source="tG9Fmj4x7ONxdbPkzslM-68" target="tG9Fmj4x7ONxdbPkzslM-65">
          <mxGeometry relative="1" as="geometry" />
        </mxCell>
        <mxCell id="tG9Fmj4x7ONxdbPkzslM-68" value="msg" style="text;html=1;strokeColor=none;fillColor=none;align=center;verticalAlign=middle;whiteSpace=wrap;rounded=0;fontFamily=Comic Sans MS;fontColor=#000000;" vertex="1" parent="lSpqPUL3MFrTZzDCxyyv-1">
          <mxGeometry x="65" y="1135" width="40" height="20" as="geometry" />
        </mxCell>
        <mxCell id="tG9Fmj4x7ONxdbPkzslM-69" style="edgeStyle=orthogonalEdgeStyle;rounded=0;orthogonalLoop=1;jettySize=auto;html=1;exitX=1;exitY=0.5;exitDx=0;exitDy=0;entryX=0;entryY=0.5;entryDx=0;entryDy=0;dashed=1;fontFamily=Comic Sans MS;fontColor=#000000;" edge="1" parent="lSpqPUL3MFrTZzDCxyyv-1" source="tG9Fmj4x7ONxdbPkzslM-66">
          <mxGeometry relative="1" as="geometry">
            <Array as="points">
              <mxPoint x="350" y="1145" />
              <mxPoint x="350" y="1120" />
              <mxPoint x="150" y="1120" />
              <mxPoint x="150" y="1085" />
            </Array>
            <mxPoint x="170" y="1085" as="targetPoint" />
          </mxGeometry>
        </mxCell>
        <mxCell id="tG9Fmj4x7ONxdbPkzslM-72" value="" style="group" vertex="1" connectable="0" parent="lSpqPUL3MFrTZzDCxyyv-1">
          <mxGeometry x="170" y="1250" width="160" height="30" as="geometry" />
        </mxCell>
        <mxCell id="tG9Fmj4x7ONxdbPkzslM-73" value="msg" style="rounded=0;whiteSpace=wrap;html=1;fontFamily=Comic Sans MS;fontColor=#FF3333;align=center;" vertex="1" parent="tG9Fmj4x7ONxdbPkzslM-72">
          <mxGeometry width="80" height="30" as="geometry" />
        </mxCell>
        <mxCell id="tG9Fmj4x7ONxdbPkzslM-74" value="next" style="rounded=0;whiteSpace=wrap;html=1;fontFamily=Comic Sans MS;fontColor=#FF3333;align=center;" vertex="1" parent="tG9Fmj4x7ONxdbPkzslM-72">
          <mxGeometry x="80" width="80" height="30" as="geometry" />
        </mxCell>
        <mxCell id="tG9Fmj4x7ONxdbPkzslM-75" style="edgeStyle=orthogonalEdgeStyle;rounded=0;orthogonalLoop=1;jettySize=auto;html=1;exitX=1;exitY=0.5;exitDx=0;exitDy=0;entryX=0;entryY=0.5;entryDx=0;entryDy=0;dashed=1;fontFamily=Comic Sans MS;fontColor=#000000;" edge="1" parent="lSpqPUL3MFrTZzDCxyyv-1" source="tG9Fmj4x7ONxdbPkzslM-76" target="tG9Fmj4x7ONxdbPkzslM-73">
          <mxGeometry relative="1" as="geometry" />
        </mxCell>
        <mxCell id="tG9Fmj4x7ONxdbPkzslM-76" value="&lt;span style=&quot;color: rgba(0 , 0 , 0 , 0) ; font-family: monospace ; font-size: 0px ; white-space: nowrap&quot;&gt;%3CmxGraphModel%3E%3Croot%3E%3CmxCell%20id%3D%220%22%2F%3E%3CmxCell%20id%3D%221%22%20parent%3D%220%22%2F%3E%3CmxCell%20id%3D%222%22%20value%3D%22%26lt%3Bfont%20color%3D%26quot%3B%23000000%26quot%3B%26gt%3BmMessages%26lt%3B%2Ffont%26gt%3B%22%20style%3D%22text%3Bhtml%3D1%3BstrokeColor%3Dnone%3BfillColor%3Dnone%3Balign%3Dcenter%3BverticalAlign%3Dmiddle%3BwhiteSpace%3Dwrap%3Brounded%3D0%3BfontFamily%3DComic%20Sans%20MS%3BfontColor%3D%23FF3333%3B%22%20vertex%3D%221%22%20parent%3D%221%22%3E%3CmxGeometry%20x%3D%2250%22%20y%3D%221235%22%20width%3D%2270%22%20height%3D%2220%22%20as%3D%22geometry%22%2F%3E%3C%2FmxCell%3E%3C%2Froot%3E%3C%2FmxGraphModel%3E&lt;/span&gt;mMessages/msg" style="text;html=1;strokeColor=none;fillColor=none;align=center;verticalAlign=middle;whiteSpace=wrap;rounded=0;fontFamily=Comic Sans MS;fontColor=#000000;" vertex="1" parent="lSpqPUL3MFrTZzDCxyyv-1">
          <mxGeometry x="10" y="1255" width="95" height="20" as="geometry" />
        </mxCell>
        <mxCell id="tG9Fmj4x7ONxdbPkzslM-77" style="edgeStyle=orthogonalEdgeStyle;rounded=0;orthogonalLoop=1;jettySize=auto;html=1;exitX=1;exitY=0.5;exitDx=0;exitDy=0;entryX=0;entryY=0.5;entryDx=0;entryDy=0;dashed=1;fontFamily=Comic Sans MS;fontColor=#000000;" edge="1" parent="lSpqPUL3MFrTZzDCxyyv-1" source="tG9Fmj4x7ONxdbPkzslM-74">
          <mxGeometry relative="1" as="geometry">
            <Array as="points">
              <mxPoint x="350" y="1265" />
              <mxPoint x="350" y="1240" />
              <mxPoint x="150" y="1240" />
              <mxPoint x="150" y="1205" />
            </Array>
            <mxPoint x="170" y="1205" as="targetPoint" />
          </mxGeometry>
        </mxCell>
        <mxCell id="tG9Fmj4x7ONxdbPkzslM-78" value="p=mMessages" style="text;html=1;strokeColor=none;fillColor=none;align=left;verticalAlign=middle;whiteSpace=wrap;rounded=0;fontFamily=Comic Sans MS;fontColor=#FF3333;" vertex="1" parent="lSpqPUL3MFrTZzDCxyyv-1">
          <mxGeometry y="890" width="80" height="20" as="geometry" />
        </mxCell>
        <mxCell id="tG9Fmj4x7ONxdbPkzslM-79" value="msg.next=p" style="text;html=1;strokeColor=none;fillColor=none;align=left;verticalAlign=middle;whiteSpace=wrap;rounded=0;fontFamily=Comic Sans MS;fontColor=#FF3333;" vertex="1" parent="lSpqPUL3MFrTZzDCxyyv-1">
          <mxGeometry y="1040" width="85" height="20" as="geometry" />
        </mxCell>
        <mxCell id="tG9Fmj4x7ONxdbPkzslM-80" value="mMessages=msg" style="text;html=1;strokeColor=none;fillColor=none;align=left;verticalAlign=middle;whiteSpace=wrap;rounded=0;fontFamily=Comic Sans MS;fontColor=#FF3333;" vertex="1" parent="lSpqPUL3MFrTZzDCxyyv-1">
          <mxGeometry y="1169" width="100" height="20" as="geometry" />
        </mxCell>
        <mxCell id="tG9Fmj4x7ONxdbPkzslM-81" value="msg.when == 0 || msg.when &amp;lt; p.when" style="text;html=1;strokeColor=none;fillColor=none;align=left;verticalAlign=middle;whiteSpace=wrap;rounded=0;fontFamily=Comic Sans MS;fontColor=#FF3333;" vertex="1" parent="lSpqPUL3MFrTZzDCxyyv-1">
          <mxGeometry y="930" width="225" height="20" as="geometry" />
        </mxCell>
        <mxCell id="_pootMqsXkUzTS045wfm-0" value="" style="group" vertex="1" connectable="0" parent="lSpqPUL3MFrTZzDCxyyv-1">
          <mxGeometry x="170" y="960" width="160" height="30" as="geometry" />
        </mxCell>
        <mxCell id="_pootMqsXkUzTS045wfm-1" value="msg0" style="rounded=0;whiteSpace=wrap;html=1;fontFamily=Comic Sans MS;fontColor=#FF3333;align=center;" vertex="1" parent="_pootMqsXkUzTS045wfm-0">
          <mxGeometry width="80" height="30" as="geometry" />
        </mxCell>
        <mxCell id="_pootMqsXkUzTS045wfm-2" value="next" style="rounded=0;whiteSpace=wrap;html=1;fontFamily=Comic Sans MS;fontColor=#FF3333;align=center;" vertex="1" parent="_pootMqsXkUzTS045wfm-0">
          <mxGeometry x="80" width="80" height="30" as="geometry" />
        </mxCell>
        <mxCell id="_pootMqsXkUzTS045wfm-4" value="" style="group" vertex="1" connectable="0" parent="lSpqPUL3MFrTZzDCxyyv-1">
          <mxGeometry x="170" y="1070" width="160" height="30" as="geometry" />
        </mxCell>
        <mxCell id="_pootMqsXkUzTS045wfm-5" value="msg0" style="rounded=0;whiteSpace=wrap;html=1;fontFamily=Comic Sans MS;fontColor=#FF3333;align=center;" vertex="1" parent="_pootMqsXkUzTS045wfm-4">
          <mxGeometry width="80" height="30" as="geometry" />
        </mxCell>
        <mxCell id="_pootMqsXkUzTS045wfm-6" value="next" style="rounded=0;whiteSpace=wrap;html=1;fontFamily=Comic Sans MS;fontColor=#FF3333;align=center;" vertex="1" parent="_pootMqsXkUzTS045wfm-4">
          <mxGeometry x="80" width="80" height="30" as="geometry" />
        </mxCell>
        <mxCell id="_pootMqsXkUzTS045wfm-7" value="" style="group" vertex="1" connectable="0" parent="lSpqPUL3MFrTZzDCxyyv-1">
          <mxGeometry x="170" y="1190" width="160" height="30" as="geometry" />
        </mxCell>
        <mxCell id="_pootMqsXkUzTS045wfm-8" value="msg0" style="rounded=0;whiteSpace=wrap;html=1;fontFamily=Comic Sans MS;fontColor=#FF3333;align=center;" vertex="1" parent="_pootMqsXkUzTS045wfm-7">
          <mxGeometry width="80" height="30" as="geometry" />
        </mxCell>
        <mxCell id="_pootMqsXkUzTS045wfm-9" value="next" style="rounded=0;whiteSpace=wrap;html=1;fontFamily=Comic Sans MS;fontColor=#FF3333;align=center;" vertex="1" parent="_pootMqsXkUzTS045wfm-7">
          <mxGeometry x="80" width="80" height="30" as="geometry" />
        </mxCell>
        <mxCell id="_pootMqsXkUzTS045wfm-12" style="edgeStyle=orthogonalEdgeStyle;rounded=0;orthogonalLoop=1;jettySize=auto;html=1;exitX=1;exitY=0.5;exitDx=0;exitDy=0;entryX=0;entryY=0.5;entryDx=0;entryDy=0;dashed=1;fontFamily=Comic Sans MS;fontColor=#000000;" edge="1" parent="lSpqPUL3MFrTZzDCxyyv-1">
          <mxGeometry relative="1" as="geometry">
            <mxPoint x="330" y="975" as="sourcePoint" />
            <mxPoint x="390" y="975" as="targetPoint" />
          </mxGeometry>
        </mxCell>
        <mxCell id="_pootMqsXkUzTS045wfm-13" value="" style="group" vertex="1" connectable="0" parent="lSpqPUL3MFrTZzDCxyyv-1">
          <mxGeometry x="380" y="960" width="160" height="30" as="geometry" />
        </mxCell>
        <mxCell id="_pootMqsXkUzTS045wfm-14" value="msg1" style="rounded=0;whiteSpace=wrap;html=1;fontFamily=Comic Sans MS;fontColor=#FF3333;align=center;" vertex="1" parent="_pootMqsXkUzTS045wfm-13">
          <mxGeometry x="10" width="80" height="30" as="geometry" />
        </mxCell>
        <mxCell id="_pootMqsXkUzTS045wfm-15" value="next" style="rounded=0;whiteSpace=wrap;html=1;fontFamily=Comic Sans MS;fontColor=#FF3333;align=center;" vertex="1" parent="_pootMqsXkUzTS045wfm-13">
          <mxGeometry x="90" width="80" height="30" as="geometry" />
        </mxCell>
        <mxCell id="_pootMqsXkUzTS045wfm-18" style="edgeStyle=orthogonalEdgeStyle;rounded=0;orthogonalLoop=1;jettySize=auto;html=1;exitX=1;exitY=0.5;exitDx=0;exitDy=0;entryX=0;entryY=0.5;entryDx=0;entryDy=0;dashed=1;fontFamily=Comic Sans MS;fontColor=#000000;" edge="1" parent="lSpqPUL3MFrTZzDCxyyv-1">
          <mxGeometry relative="1" as="geometry">
            <mxPoint x="330" y="1085" as="sourcePoint" />
            <mxPoint x="390" y="1085" as="targetPoint" />
          </mxGeometry>
        </mxCell>
        <mxCell id="_pootMqsXkUzTS045wfm-19" value="" style="group" vertex="1" connectable="0" parent="lSpqPUL3MFrTZzDCxyyv-1">
          <mxGeometry x="380" y="1070" width="160" height="30" as="geometry" />
        </mxCell>
        <mxCell id="_pootMqsXkUzTS045wfm-20" value="msg1" style="rounded=0;whiteSpace=wrap;html=1;fontFamily=Comic Sans MS;fontColor=#FF3333;align=center;" vertex="1" parent="_pootMqsXkUzTS045wfm-19">
          <mxGeometry x="10" width="80" height="30" as="geometry" />
        </mxCell>
        <mxCell id="_pootMqsXkUzTS045wfm-21" value="next" style="rounded=0;whiteSpace=wrap;html=1;fontFamily=Comic Sans MS;fontColor=#FF3333;align=center;" vertex="1" parent="_pootMqsXkUzTS045wfm-19">
          <mxGeometry x="90" width="80" height="30" as="geometry" />
        </mxCell>
        <mxCell id="_pootMqsXkUzTS045wfm-22" style="edgeStyle=orthogonalEdgeStyle;rounded=0;orthogonalLoop=1;jettySize=auto;html=1;exitX=1;exitY=0.5;exitDx=0;exitDy=0;entryX=0;entryY=0.5;entryDx=0;entryDy=0;dashed=1;fontFamily=Comic Sans MS;fontColor=#000000;" edge="1" parent="lSpqPUL3MFrTZzDCxyyv-1">
          <mxGeometry relative="1" as="geometry">
            <mxPoint x="330" y="1205" as="sourcePoint" />
            <mxPoint x="390" y="1205" as="targetPoint" />
          </mxGeometry>
        </mxCell>
        <mxCell id="_pootMqsXkUzTS045wfm-23" value="" style="group" vertex="1" connectable="0" parent="lSpqPUL3MFrTZzDCxyyv-1">
          <mxGeometry x="380" y="1190" width="160" height="30" as="geometry" />
        </mxCell>
        <mxCell id="_pootMqsXkUzTS045wfm-24" value="msg1" style="rounded=0;whiteSpace=wrap;html=1;fontFamily=Comic Sans MS;fontColor=#FF3333;align=center;" vertex="1" parent="_pootMqsXkUzTS045wfm-23">
          <mxGeometry x="10" width="80" height="30" as="geometry" />
        </mxCell>
        <mxCell id="_pootMqsXkUzTS045wfm-25" value="next" style="rounded=0;whiteSpace=wrap;html=1;fontFamily=Comic Sans MS;fontColor=#FF3333;align=center;" vertex="1" parent="_pootMqsXkUzTS045wfm-23">
          <mxGeometry x="90" width="80" height="30" as="geometry" />
        </mxCell>
        <mxCell id="mqGCwkkGRxhYkVGzgnKC-0" style="edgeStyle=orthogonalEdgeStyle;rounded=0;orthogonalLoop=1;jettySize=auto;html=1;exitX=1;exitY=0.5;exitDx=0;exitDy=0;entryX=0;entryY=0.5;entryDx=0;entryDy=0;dashed=1;fontFamily=Comic Sans MS;fontColor=#000000;" edge="1" parent="lSpqPUL3MFrTZzDCxyyv-1" source="mqGCwkkGRxhYkVGzgnKC-1">
          <mxGeometry relative="1" as="geometry">
            <mxPoint x="170" y="1205" as="targetPoint" />
          </mxGeometry>
        </mxCell>
        <mxCell id="mqGCwkkGRxhYkVGzgnKC-1" value="p" style="text;html=1;strokeColor=none;fillColor=none;align=center;verticalAlign=middle;whiteSpace=wrap;rounded=0;fontFamily=Comic Sans MS;fontColor=#000000;" vertex="1" parent="lSpqPUL3MFrTZzDCxyyv-1">
          <mxGeometry x="80" y="1195" width="25" height="20" as="geometry" />
        </mxCell>
      </root>
    </mxGraphModel>
  </diagram>
</mxfile>
